HIERARCHY
ROOT Hips
{
	OFFSET -4.241529 102.762794 -1.538050
	CHANNELS 6 Xposition Yposition Zposition Xrotation Yrotation Zrotation
	JOINT Chest
	{
		OFFSET 3.085958 13.276115 0.613050
		CHANNELS 3 Xrotation Yrotation Zrotation
		JOINT Chest2
		{
			OFFSET 5.191101 20.785080 0.315678
			CHANNELS 3 Xrotation Yrotation Zrotation
			JOINT Chest3
			{
				OFFSET 3.798828 14.425476 -0.542805
				CHANNELS 3 Xrotation Yrotation Zrotation
				JOINT Neck
				{
					OFFSET 3.580393 16.900116 0.427489
					CHANNELS 3 Xrotation Yrotation Zrotation
					JOINT Head
					{
						OFFSET 0.289881 10.272736 2.052908
						CHANNELS 3 Xrotation Yrotation Zrotation
						End Site
						{
							OFFSET 0.326827 10.283844 1.990840
						}
					}
				}
				JOINT LeftCollar
				{
					OFFSET 5.653728 12.246033 4.458066
					CHANNELS 3 Xrotation Yrotation Zrotation
					JOINT LeftUpArm
					{
						OFFSET 15.874117 -7.053940 -2.598817
						CHANNELS 3 Xrotation Yrotation Zrotation
						JOINT LeftLowArm
						{
							OFFSET 6.081470 -33.207573 -0.038372
							CHANNELS 3 Xrotation Yrotation Zrotation
							JOINT LeftHand
							{
								OFFSET 7.071857 -28.175980 7.553186
								CHANNELS 3 Xrotation Yrotation Zrotation
								End Site
								{
									OFFSET 1.545589 -6.158028 1.650792
								}
							}
						}
					}
				}
				JOINT RightCollar
				{
					OFFSET -2.085674 13.957428 1.627538
					CHANNELS 3 Xrotation Yrotation Zrotation
					JOINT RightUpArm
					{
						OFFSET -13.239557 -3.218079 -11.083965
						CHANNELS 3 Xrotation Yrotation Zrotation
						JOINT RightLowArm
						{
							OFFSET -19.751104 -20.999603 17.568304
							CHANNELS 3 Xrotation Yrotation Zrotation
							JOINT RightHand
							{
								OFFSET -9.503193 23.244431 16.442032
								CHANNELS 3 Xrotation Yrotation Zrotation
								End Site
								{
									OFFSET -2.077023 5.080292 3.593584
								}
							}
						}
					}
				}
			}
		}
	}
	JOINT LeftUpLeg
	{
		OFFSET 8.598155 -2.213379 4.646702
		CHANNELS 3 Xrotation Yrotation Zrotation
		JOINT LeftLowLeg
		{
			OFFSET 3.447650 -46.130085 10.203884
			CHANNELS 3 Xrotation Yrotation Zrotation
			JOINT LeftFoot
			{
				OFFSET 31.398256 -24.815392 -19.972837
				CHANNELS 3 Xrotation Yrotation Zrotation
				JOINT LeftToe
				{
					OFFSET 11.465652 -20.337471 3.806002
					CHANNELS 3 Xrotation Yrotation Zrotation
					End Site
					{
						OFFSET 4.156746 -15.701137 17.197517
					}
				}
			}
		}
	}
	JOINT RightUpLeg
	{
		OFFSET -8.598203 2.213181 -4.646713
		CHANNELS 3 Xrotation Yrotation Zrotation
		JOINT RightLowLeg
		{
			OFFSET -4.732971 -47.073967 -2.377854
			CHANNELS 3 Xrotation Yrotation Zrotation
			JOINT RightFoot
			{
				OFFSET 10.556734 -39.763245 -17.550520
				CHANNELS 3 Xrotation Yrotation Zrotation
				JOINT RightToe
				{
					OFFSET -3.960088 -16.508091 16.472939
					CHANNELS 3 Xrotation Yrotation Zrotation
					End Site
					{
						OFFSET -8.587068 -2.256449 21.925484
					}
				}
			}
		}
	}
}
MOTION
Frames: 6
Frame Time: 0.033333
0.569610 99.104027 -3.524674 -2.596889 -1.480514 -6.127239 2.441795 -0.476117 -1.598541 -3.704580 -0.688357 1.387204 2.396265 -0.106601 1.686829 6.754027 -0.877453 1.704602 0.000002 0.000000 -0.000000 -0.116995 0.384563 3.664073 0.035895 -1.515102 -0.229982 1.055382 -2.807014 -1.255550 0.000001 -0.000004 0.000002 -0.100603 0.999466 5.104639 5.787367 -4.008379 8.933831 -7.279681 16.431470 -12.544042 0.000003 -0.000001 -0.000000 0.408768 0.656598 0.084552 4.813510 0.614997 7.220659 -1.947478 0.956442 1.014462 0.000004 0.000006 0.000001 -0.959822 -0.256766 1.180827 7.493866 0.327974 4.317195 -0.646803 1.632600 -3.125096 -0.000000 -0.000001 0.000000 
0.610039 99.075417 -3.567175 -2.466228 -1.638877 -6.106350 2.010878 -0.343039 -1.613916 -3.775210 -0.687318 1.344936 2.529399 -0.241863 1.672639 6.712171 -0.966922 1.669133 0.000001 0.000002 0.000000 -0.244843 0.729176 3.727474 0.111354 -1.293063 -0.222669 0.643675 -2.787944 -1.445097 0.000003 -0.000004 0.000001 -0.186700 0.958220 5.029329 5.925796 -4.341325 9.324879 -7.226684 17.245621 -12.567954 -0.000000 -0.000001 0.000001 0.058127 0.702185 0.136866 5.334131 0.833996 6.994760 -2.286764 1.054399 1.090604 0.000001 0.000003 -0.000003 -1.375590 -0.176053 1.093067 7.956520 0.476120 4.496223 -0.966282 1.796553 -3.388418 -0.000000 -0.000004 0.000001 
0.649337 99.050880 -3.610503 -2.599051 -1.786287 -6.077125 2.382237 -0.444818 -1.688077 -4.401162 -0.578035 1.153234 3.056464 0.308597 1.868024 6.111712 -1.288855 1.892817 0.000001 -0.000002 0.000001 -0.208202 0.129056 3.758487 -0.011123 -1.301916 -0.319114 0.594354 -2.747374 -1.263235 0.000001 -0.000005 0.000003 -0.435476 0.479967 5.247291 5.881436 -4.395912 9.330322 -7.181343 17.684012 -12.588654 -0.000000 -0.000001 -0.000002 0.244164 0.739854 0.143757 5.301264 0.853792 6.843000 -2.217755 1.348822 1.283054 -0.000000 0.000003 -0.000003 -1.383384 -0.210147 1.024029 8.016685 0.433399 4.414290 -0.728916 1.701813 -3.291406 -0.000001 -0.000001 0.000001 
0.686204 99.026680 -3.647653 -2.581574 -1.327324 -6.138323 2.566125 -0.493549 -1.587345 -4.953569 -0.621887 1.234929 3.393554 0.198315 1.766474 6.439795 -1.220769 1.828199 -0.000001 -0.000000 0.000001 -0.347749 0.233850 3.842236 0.397977 -0.855372 -0.334407 1.175523 -2.427423 -1.611167 0.000001 -0.000002 0.000003 -0.587624 0.211204 5.155495 5.886317 -4.551185 9.637017 -6.964815 18.642458 -12.466006 -0.000000 -0.000002 -0.000000 0.404852 0.709402 0.179047 4.949751 0.680265 7.107891 -2.386953 0.954469 1.030135 -0.000004 0.000003 -0.000000 -0.990898 -0.284114 1.144026 7.735717 0.383238 4.461961 -0.990066 1.831921 -3.412850 -0.000000 -0.000002 0.000001 
0.719839 99.006935 -3.683915 -2.666054 -1.362824 -6.096796 2.313196 -0.429600 -1.639966 -4.568544 -0.591399 1.202610 3.248869 0.283829 1.843848 6.311410 -1.245146 1.890494 0.000001 0.000002 0.000001 -0.276187 0.586676 3.751437 0.616285 -0.783909 -0.180718 1.693890 -2.424039 -1.776497 0.000003 0.000002 0.000002 -0.507932 0.242958 5.185419 5.746475 -4.174152 9.533354 -6.992534 18.369498 -12.486042 -0.000000 -0.000002 -0.000001 0.340342 0.688621 0.080973 4.889840 0.696257 7.254087 -2.021968 0.994095 1.035894 -0.000004 0.000000 -0.000000 -1.078154 -0.258395 1.160560 7.899901 0.394065 4.363037 -0.871087 1.778303 -3.296071 0.000001 -0.000001 0.000001 
0.751537 98.988602 -3.721051 -2.515953 -1.616247 -6.180559 2.418708 -0.468967 -1.570374 -4.829912 -0.594655 1.219574 3.350948 0.229170 1.837088 7.107090 -0.824679 1.560101 0.000001 -0.000000 0.000001 -0.211178 0.656397 3.567116 0.378952 -1.049286 -0.123907 1.216099 -2.572407 -1.586179 0.000002 -0.000001 0.000002 -0.262193 0.917707 5.248683 5.781744 -4.080902 9.295491 -7.185456 17.880008 -12.622344 -0.000000 -0.000002 -0.000001 0.379346 0.687205 0.252675 4.883184 0.803899 7.055108 -1.926148 1.114655 1.126974 0.000001 -0.000001 -0.000003 -1.117734 -0.229155 1.070608 7.739222 0.268900 4.554274 -0.794556 1.527675 -3.035213 -0.000001 -0.000001 0.000000 
